<?xml version="1.0" encoding="UTF-8" ?>
<!DOCTYPE svg PUBLIC "-//W3C//DTD SVG 1.1//EN" "http://www.w3.org/Graphics/SVG/1.1/DTD/svg11.dtd">
<svg width="200pt" height="200pt" viewBox="0 0 200 200" version="1.1" xmlns="http://www.w3.org/2000/svg">
<g id="#000000ff">
</g>
<g id="#cacbcdff">
<path fill="#cacbcd" opacity="1.00" d=" M 94.56 0.00 L 105.31 0.00 C 131.38 1.46 156.71 13.36 174.15 32.84 C 189.54 49.63 198.61 71.82 200.00 94.52 L 200.00 105.41 C 198.51 131.21 186.84 156.28 167.67 173.68 C 150.80 189.36 128.37 198.61 105.43 200.00 L 94.60 200.00 C 68.79 198.51 43.71 186.84 26.31 167.66 C 10.65 150.80 1.40 128.40 0.00 105.47 L 0.00 94.64 C 1.37 71.67 10.62 49.23 26.30 32.34 C 43.69 13.18 68.76 1.50 94.56 0.00 M 89.41 2.59 C 75.23 4.11 61.40 8.78 49.22 16.21 C 28.61 28.65 12.88 48.93 6.08 72.03 C -0.28 93.20 0.85 116.50 9.24 136.95 C 19.00 161.15 38.89 181.02 63.09 190.78 C 85.94 200.16 112.34 200.39 135.34 191.40 C 156.27 183.36 174.18 167.85 185.22 148.36 C 197.14 127.55 200.95 102.27 195.68 78.87 C 190.32 53.96 174.65 31.55 153.26 17.76 C 134.57 5.56 111.59 0.09 89.41 2.59 Z" />
</g>
<g id="#808080ff">
<path fill="#808080" opacity="1.00" d=" M 89.41 2.59 C 111.59 0.09 134.57 5.56 153.26 17.76 C 174.65 31.55 190.32 53.96 195.68 78.87 C 200.95 102.27 197.14 127.55 185.22 148.36 C 174.18 167.85 156.27 183.36 135.34 191.40 C 112.34 200.39 85.94 200.16 63.09 190.78 C 38.89 181.02 19.00 161.15 9.24 136.95 C 0.85 116.50 -0.28 93.20 6.08 72.03 C 12.88 48.93 28.61 28.65 49.22 16.21 C 61.40 8.78 75.23 4.11 89.41 2.59 M 89.47 10.67 C 65.05 13.40 42.16 26.82 27.64 46.61 C 15.24 63.25 8.97 84.30 10.19 105.02 C 11.18 123.83 18.34 142.23 30.29 156.78 C 43.02 172.47 61.17 183.70 80.95 187.91 C 99.63 191.98 119.60 189.91 137.00 181.98 C 157.04 172.97 173.51 156.35 182.33 136.23 C 191.12 116.46 192.34 93.49 185.77 72.89 C 179.34 52.35 165.18 34.39 146.80 23.20 C 129.81 12.74 109.27 8.30 89.47 10.67 Z" />
</g>
<g id="#ffffffff">
<path fill="#ffffff" opacity="1.00" d=" M 89.47 10.67 C 109.27 8.30 129.81 12.74 146.80 23.20 C 165.18 34.39 179.34 52.35 185.77 72.89 C 192.34 93.49 191.12 116.46 182.33 136.23 C 173.51 156.35 157.04 172.97 137.00 181.98 C 119.60 189.91 99.63 191.98 80.95 187.91 C 61.17 183.70 43.02 172.47 30.29 156.78 C 18.34 142.23 11.18 123.83 10.19 105.02 C 8.97 84.30 15.24 63.25 27.64 46.61 C 42.16 26.82 65.05 13.40 89.47 10.67 M 92.25 12.31 C 63.39 14.70 36.32 32.35 22.73 57.94 C 13.46 74.88 9.85 94.96 13.11 114.02 C 16.51 135.14 27.85 154.99 44.60 168.34 C 57.90 179.22 74.50 185.97 91.59 187.61 C 113.04 189.81 135.20 183.51 152.45 170.62 C 167.03 159.96 177.94 144.55 183.61 127.44 C 188.84 111.58 189.48 94.24 185.23 78.08 C 179.28 54.72 163.32 34.06 142.01 22.71 C 126.94 14.46 109.37 10.69 92.25 12.31 Z" />
<path fill="#ffffff" opacity="1.00" d=" M 77.66 53.84 C 82.42 54.65 87.18 55.53 91.91 56.52 C 95.48 57.29 99.03 58.13 102.57 58.99 C 114.10 62.01 125.84 65.45 135.79 72.21 C 140.97 75.74 145.85 81.42 144.91 88.13 C 143.84 95.76 137.80 101.19 132.59 106.32 C 139.62 101.63 145.82 95.63 150.41 88.53 C 152.88 97.64 152.70 107.63 149.12 116.42 C 149.09 114.90 149.04 113.38 148.98 111.85 C 146.89 112.43 144.80 113.00 142.72 113.57 C 140.03 114.32 137.33 114.99 134.67 115.81 L 133.94 116.09 C 133.78 118.20 133.97 120.38 133.45 122.45 C 132.52 123.42 131.46 123.53 130.29 122.77 C 129.44 120.90 129.81 118.77 129.69 116.78 C 124.76 118.17 119.82 119.53 114.89 120.92 C 114.72 128.25 114.99 135.60 114.67 142.92 C 114.68 144.49 112.81 145.54 111.50 144.61 C 110.74 142.56 110.90 140.33 110.69 138.19 C 105.67 139.79 100.54 140.98 95.55 142.65 C 95.61 145.63 95.62 148.61 95.53 151.59 C 92.31 151.55 89.18 150.74 86.22 149.51 C 88.75 148.60 91.32 147.78 93.95 147.23 C 93.93 146.20 93.89 144.15 93.86 143.12 C 90.65 143.98 87.36 144.60 84.21 145.70 C 83.89 147.41 84.41 148.65 85.77 149.43 C 84.98 149.69 84.18 149.91 83.36 150.09 C 83.25 148.70 83.15 147.31 83.08 145.92 C 81.13 146.39 79.18 146.87 77.25 147.41 C 76.06 146.20 74.88 144.98 73.68 143.79 C 80.73 141.88 87.77 139.92 94.82 138.02 C 99.21 136.73 103.79 135.92 107.95 133.95 C 112.51 131.95 110.50 126.12 111.05 122.26 C 105.91 123.51 100.78 124.77 95.65 126.05 C 95.66 128.64 95.45 131.23 95.09 133.79 C 93.88 134.01 92.76 133.83 91.72 133.25 C 91.18 130.49 91.44 127.65 91.44 124.86 C 104.92 121.36 117.56 115.18 129.35 107.84 C 126.30 106.42 123.19 105.08 119.90 104.33 C 104.44 100.56 88.27 100.81 72.89 96.64 C 67.28 94.92 60.74 92.29 58.79 86.18 C 57.14 80.51 60.16 75.04 62.40 70.01 C 60.78 71.54 59.26 73.17 57.81 74.86 C 57.79 73.64 57.26 72.23 58.13 71.15 C 63.20 63.93 70.32 58.58 77.66 53.84 Z" />
</g>
<g id="#e1e3e3ff">
<path fill="#e1e3e3" opacity="1.00" d=" M 92.25 12.31 C 109.37 10.69 126.94 14.46 142.01 22.71 C 163.32 34.06 179.28 54.72 185.23 78.08 C 189.48 94.24 188.84 111.58 183.61 127.44 C 177.94 144.55 167.03 159.96 152.45 170.62 C 135.20 183.51 113.04 189.81 91.59 187.61 C 74.50 185.97 57.90 179.22 44.60 168.34 C 27.85 154.99 16.51 135.14 13.11 114.02 C 9.85 94.96 13.46 74.88 22.73 57.94 C 36.32 32.35 63.39 14.70 92.25 12.31 M 91.38 34.29 C 84.97 35.25 78.59 36.42 72.31 38.06 C 62.15 40.72 52.26 44.34 42.71 48.70 C 44.53 49.10 46.36 49.40 48.20 49.66 C 46.12 53.90 42.29 56.88 39.94 60.95 C 31.97 73.07 28.17 87.56 27.90 101.97 C 28.65 108.00 29.10 114.11 30.87 119.96 C 35.42 135.93 45.37 150.78 59.49 159.72 C 58.70 161.79 57.92 163.87 57.33 166.01 C 60.00 164.81 59.72 161.36 60.63 159.02 C 61.15 160.38 61.55 161.80 61.58 163.28 C 62.27 164.43 63.33 165.29 64.19 166.31 C 64.00 165.57 63.60 164.09 63.40 163.35 C 64.21 163.85 65.03 164.34 65.84 164.84 L 65.93 166.04 C 67.53 165.90 69.12 165.81 70.72 165.75 C 71.49 166.55 72.30 167.33 73.39 167.67 C 79.34 169.93 85.48 171.77 91.83 172.45 C 100.49 174.13 109.36 172.70 117.86 170.85 C 121.92 169.39 126.53 168.85 129.97 166.09 C 132.59 166.34 134.72 164.71 134.13 161.93 C 136.12 163.20 137.10 161.16 137.88 159.64 C 137.96 161.80 137.96 163.96 138.06 166.12 C 140.78 165.35 138.89 161.64 139.39 159.62 C 140.17 159.37 141.75 158.88 142.53 158.63 L 143.24 158.39 C 143.37 160.79 143.48 163.20 143.39 165.61 C 145.27 165.71 147.15 165.70 149.03 165.78 C 149.01 165.43 148.96 164.72 148.94 164.36 C 147.52 164.37 146.09 164.37 144.67 164.37 C 144.43 161.54 147.58 162.39 149.35 162.13 C 148.24 160.61 146.27 161.12 144.69 160.88 C 144.80 158.52 147.46 159.50 149.00 159.33 L 149.00 158.03 C 147.48 157.95 145.96 157.93 144.44 157.98 C 146.82 155.82 149.41 153.91 151.79 151.75 C 154.15 149.11 156.28 146.27 158.56 143.57 C 167.61 131.65 172.13 116.83 173.11 102.02 C 172.92 85.66 167.76 69.19 157.70 56.18 C 157.13 55.94 156.00 55.47 155.43 55.24 C 153.33 50.21 149.61 46.05 145.27 42.82 C 134.15 35.11 120.21 33.31 106.99 33.59 C 101.78 33.67 96.57 33.81 91.38 34.29 Z" />
</g>
<g id="#36659cff">
<path fill="#36659c" opacity="1.00" d=" M 91.38 34.29 C 96.57 33.81 101.78 33.67 106.99 33.59 C 107.41 40.58 106.56 47.63 107.74 54.57 C 106.03 55.47 104.36 56.44 102.68 57.38 C 102.65 57.78 102.60 58.59 102.57 58.99 C 99.03 58.13 95.48 57.29 91.91 56.52 C 91.84 49.11 92.54 41.65 91.38 34.29 Z" />
<path fill="#36659c" opacity="1.00" d=" M 97.57 165.51 C 97.74 162.84 96.86 159.80 98.53 157.46 C 98.79 160.14 98.81 162.84 98.83 165.53 C 98.52 165.53 97.88 165.52 97.57 165.51 Z" />
</g>
<g id="#316caaff">
<path fill="#316caa" opacity="1.00" d=" M 106.99 33.59 C 120.21 33.31 134.15 35.11 145.27 42.82 C 132.52 45.88 119.59 48.74 107.74 54.57 C 106.56 47.63 107.41 40.58 106.99 33.59 Z" />
</g>
<g id="#386093ff">
<path fill="#386093" opacity="1.00" d=" M 72.31 38.06 C 78.59 36.42 84.97 35.25 91.38 34.29 C 92.54 41.65 91.84 49.11 91.91 56.52 C 87.18 55.53 82.42 54.65 77.66 53.84 C 75.48 53.47 73.29 53.13 71.11 52.80 C 74.98 48.98 72.69 42.84 72.31 38.06 Z" />
</g>
<g id="#3a5a88ff">
<path fill="#3a5a88" opacity="1.00" d=" M 42.71 48.70 C 52.26 44.34 62.15 40.72 72.31 38.06 C 72.69 42.84 74.98 48.98 71.11 52.80 C 68.83 52.43 66.55 52.06 64.26 51.74 C 58.91 51.00 53.56 50.32 48.20 49.66 C 46.36 49.40 44.53 49.10 42.71 48.70 Z" />
<path fill="#3a5a88" opacity="1.00" d=" M 72.22 161.14 C 72.33 158.58 74.90 157.84 77.04 157.80 C 78.99 158.32 78.82 160.54 79.26 162.11 C 78.82 163.24 79.32 165.42 77.68 165.61 C 74.80 166.94 71.39 164.26 72.22 161.14 M 73.32 162.02 C 72.88 165.06 77.72 166.01 78.34 162.99 C 77.64 162.90 76.23 162.72 75.53 162.63 C 76.32 162.42 77.89 161.99 78.68 161.78 C 78.42 161.10 77.89 159.73 77.63 159.04 C 75.54 158.64 72.82 159.28 73.32 162.02 Z" />
</g>
<g id="#195ca1ff">
<path fill="#195ca1" opacity="1.00" d=" M 107.74 54.57 C 119.59 48.74 132.52 45.88 145.27 42.82 C 149.61 46.05 153.33 50.21 155.43 55.24 C 157.74 61.27 157.76 67.92 156.51 74.19 C 155.29 79.27 153.18 84.11 150.41 88.53 C 145.82 95.63 139.62 101.63 132.59 106.32 C 137.80 101.19 143.84 95.76 144.91 88.13 C 145.85 81.42 140.97 75.74 135.79 72.21 C 125.84 65.45 114.10 62.01 102.57 58.99 C 102.60 58.59 102.65 57.78 102.68 57.38 C 104.36 56.44 106.03 55.47 107.74 54.57 Z" />
<path fill="#195ca1" opacity="1.00" d=" M 111.82 157.85 C 113.49 157.98 115.18 158.06 116.83 158.37 C 117.60 159.52 117.74 160.75 117.26 162.07 C 115.97 162.53 114.66 162.92 113.33 163.24 C 113.28 164.20 113.24 165.16 113.19 166.13 C 112.84 165.94 112.13 165.57 111.77 165.39 C 111.70 162.87 111.72 160.36 111.82 157.85 M 113.31 159.18 C 113.32 159.80 113.35 161.02 113.36 161.64 C 114.33 161.44 115.30 161.23 116.27 161.01 C 115.93 159.50 114.60 159.30 113.31 159.18 Z" />
<path fill="#195ca1" opacity="1.00" d=" M 128.40 159.38 C 129.71 156.69 133.73 157.83 134.47 160.45 C 133.05 159.94 130.85 158.47 129.69 160.22 C 131.15 160.83 132.61 161.46 134.13 161.93 C 134.72 164.71 132.59 166.34 129.97 166.09 C 128.97 165.15 128.35 163.91 127.74 162.72 C 129.35 163.86 131.30 164.54 133.28 163.96 C 131.65 162.53 127.96 162.14 128.40 159.38 Z" />
</g>
<g id="#f0f1f1ff">
<path fill="#f0f1f1" opacity="1.00" d=" M 48.20 49.66 C 53.56 50.32 58.91 51.00 64.26 51.74 C 52.30 61.21 43.74 74.98 41.04 90.03 C 38.35 101.65 40.66 113.93 45.29 124.73 C 48.40 131.24 51.88 137.96 57.69 142.48 C 57.69 143.69 57.73 144.91 57.80 146.12 C 58.28 146.33 59.23 146.76 59.71 146.97 C 65.05 151.24 70.62 155.29 77.04 157.80 C 74.90 157.84 72.33 158.58 72.22 161.14 C 71.39 164.26 74.80 166.94 77.68 165.61 C 79.32 165.42 78.82 163.24 79.26 162.11 C 79.59 162.24 80.26 162.51 80.59 162.64 C 80.88 163.43 81.46 165.00 81.75 165.79 C 83.76 165.79 85.81 165.77 87.74 165.12 C 88.11 165.19 88.85 165.34 89.22 165.42 C 89.44 165.52 89.88 165.71 90.10 165.81 C 90.16 164.61 90.23 163.41 90.29 162.21 C 90.80 162.28 91.81 162.42 92.32 162.50 C 92.98 163.54 93.66 164.59 94.53 165.48 C 94.89 165.49 95.62 165.50 95.99 165.51 C 96.38 165.51 97.17 165.51 97.57 165.51 C 97.88 165.52 98.52 165.53 98.83 165.53 C 99.36 165.58 100.42 165.67 100.95 165.71 C 103.07 165.92 105.20 165.86 107.32 165.72 C 108.81 165.62 110.29 165.46 111.77 165.39 C 112.13 165.57 112.84 165.94 113.19 166.13 C 113.24 165.16 113.28 164.20 113.33 163.24 C 114.92 164.84 117.18 164.01 119.13 164.03 C 120.80 165.39 123.24 166.82 125.23 165.14 C 127.38 163.21 126.50 159.96 124.96 157.95 C 132.30 154.84 138.76 149.92 144.73 144.70 C 151.26 137.49 157.00 129.27 159.76 119.84 C 162.28 111.38 163.95 102.40 162.51 93.59 C 161.41 86.90 160.26 79.99 156.51 74.19 C 157.76 67.92 157.74 61.27 155.43 55.24 C 156.00 55.47 157.13 55.94 157.70 56.18 C 167.76 69.19 172.92 85.66 173.11 102.02 C 172.13 116.83 167.61 131.65 158.56 143.57 C 156.28 146.27 154.15 149.11 151.79 151.75 C 149.41 153.91 146.82 155.82 144.44 157.98 C 144.14 158.08 143.54 158.29 143.24 158.39 L 142.53 158.63 C 140.09 158.14 137.26 157.16 135.08 158.94 C 135.78 159.12 137.18 159.46 137.88 159.64 C 137.10 161.16 136.12 163.20 134.13 161.93 C 132.61 161.46 131.15 160.83 129.69 160.22 C 130.85 158.47 133.05 159.94 134.47 160.45 C 133.73 157.83 129.71 156.69 128.40 159.38 C 127.96 162.14 131.65 162.53 133.28 163.96 C 131.30 164.54 129.35 163.86 127.74 162.72 C 128.35 163.91 128.97 165.15 129.97 166.09 C 126.53 168.85 121.92 169.39 117.86 170.85 C 109.36 172.70 100.49 174.13 91.83 172.45 C 85.48 171.77 79.34 169.93 73.39 167.67 C 72.30 167.33 71.49 166.55 70.72 165.75 L 69.85 164.90 C 69.15 164.81 67.74 164.61 67.04 164.52 C 67.04 162.17 67.02 159.83 66.90 157.49 C 64.86 159.35 65.97 162.43 65.84 164.84 C 65.03 164.34 64.21 163.85 63.40 163.35 C 62.86 161.17 61.81 159.17 60.40 157.42 C 60.17 158.00 59.72 159.15 59.49 159.72 C 45.37 150.78 35.42 135.93 30.87 119.96 C 29.10 114.11 28.65 108.00 27.90 101.97 C 28.17 87.56 31.97 73.07 39.94 60.95 C 42.29 56.88 46.12 53.90 48.20 49.66 Z" />
</g>
<g id="#f9f9f9ff">
<path fill="#f9f9f9" opacity="1.00" d=" M 64.26 51.74 C 66.55 52.06 68.83 52.43 71.11 52.80 C 73.29 53.13 75.48 53.47 77.66 53.84 C 70.32 58.58 63.20 63.93 58.13 71.15 C 57.26 72.23 57.79 73.64 57.81 74.86 C 52.31 82.15 47.83 90.64 47.31 99.92 C 46.81 107.05 49.22 114.56 54.56 119.46 C 58.98 123.62 64.94 125.73 70.87 126.48 C 72.80 126.64 74.73 126.74 76.67 126.86 C 76.57 130.43 76.90 134.03 76.42 137.59 C 76.20 139.49 73.97 139.35 72.60 138.99 C 72.55 136.99 72.40 134.99 72.25 133.00 C 67.43 134.26 62.59 135.39 57.77 136.62 C 57.71 138.57 57.68 140.53 57.69 142.48 C 51.88 137.96 48.40 131.24 45.29 124.73 C 40.66 113.93 38.35 101.65 41.04 90.03 C 43.74 74.98 52.30 61.21 64.26 51.74 Z" />
<path fill="#f9f9f9" opacity="1.00" d=" M 150.41 88.53 C 153.18 84.11 155.29 79.27 156.51 74.19 C 160.26 79.99 161.41 86.90 162.51 93.59 C 163.95 102.40 162.28 111.38 159.76 119.84 C 157.00 129.27 151.26 137.49 144.73 144.70 C 138.76 149.92 132.30 154.84 124.96 157.95 C 123.31 158.12 121.15 157.50 120.03 159.09 C 119.03 160.52 119.38 162.40 119.13 164.03 C 117.18 164.01 114.92 164.84 113.33 163.24 C 114.66 162.92 115.97 162.53 117.26 162.07 C 117.74 160.75 117.60 159.52 116.83 158.37 C 115.18 158.06 113.49 157.98 111.82 157.85 C 111.72 160.36 111.70 162.87 111.77 165.39 C 110.29 165.46 108.81 165.62 107.32 165.72 C 105.86 164.61 104.09 164.51 102.34 164.56 C 102.33 164.02 102.32 162.93 102.31 162.38 C 103.68 162.35 105.05 162.32 106.42 162.30 L 106.44 161.18 C 104.89 161.06 103.35 160.91 101.82 160.75 C 102.37 158.10 105.62 159.31 107.51 158.66 C 105.42 157.92 103.19 157.90 101.00 157.94 C 100.99 160.53 100.98 163.12 100.95 165.71 C 100.42 165.67 99.36 165.58 98.83 165.53 C 98.81 162.84 98.79 160.14 98.53 157.46 C 96.86 159.80 97.74 162.84 97.57 165.51 C 97.17 165.51 96.38 165.51 95.99 165.51 C 95.10 164.67 94.39 163.68 93.67 162.71 C 94.53 161.41 95.90 159.91 94.57 158.41 C 92.81 157.96 90.97 158.08 89.18 157.99 C 89.14 160.46 89.12 162.94 89.22 165.42 C 88.85 165.34 88.11 165.19 87.74 165.12 C 85.98 164.80 84.20 164.69 82.43 164.57 L 82.44 162.42 C 84.08 162.35 85.83 162.38 87.30 161.51 C 85.68 161.36 84.07 161.24 82.45 161.16 C 82.45 160.62 82.45 159.53 82.45 158.98 C 84.17 158.96 85.89 158.93 87.61 158.91 C 86.80 158.61 85.17 158.03 84.36 157.74 C 84.59 157.21 85.07 156.17 85.31 155.65 C 83.90 156.52 82.58 157.53 81.34 158.64 C 81.38 160.00 81.39 161.35 81.37 162.71 L 80.59 162.64 C 80.26 162.51 79.59 162.24 79.26 162.11 C 78.82 160.54 78.99 158.32 77.04 157.80 C 70.62 155.29 65.05 151.24 59.71 146.97 C 63.85 146.62 67.83 145.40 71.81 144.30 C 72.28 144.17 73.21 143.92 73.68 143.79 C 74.88 144.98 76.06 146.20 77.25 147.41 C 75.94 147.73 74.67 148.16 73.38 148.53 C 73.43 149.52 73.55 151.50 73.60 152.50 C 76.81 151.50 80.11 150.88 83.36 150.09 C 84.18 149.91 84.98 149.69 85.77 149.43 L 86.22 149.51 C 89.18 150.74 92.31 151.55 95.53 151.59 C 100.17 154.49 105.43 151.33 110.15 150.31 C 115.09 148.82 120.14 147.68 125.02 146.00 C 127.21 145.17 129.89 143.73 130.03 141.08 C 130.33 136.84 130.15 132.59 130.32 128.35 C 132.09 127.89 133.86 127.43 135.64 126.98 C 138.29 126.28 140.97 125.69 143.61 124.97 C 145.47 124.28 147.43 123.41 148.50 121.64 C 149.14 119.99 148.96 118.16 149.12 116.42 C 152.70 107.63 152.88 97.64 150.41 88.53 M 133.96 133.11 C 133.96 134.46 133.96 135.81 133.96 137.16 C 137.19 136.36 140.41 135.55 143.63 134.72 C 143.56 133.36 143.50 131.99 143.46 130.63 C 140.29 131.44 137.12 132.27 133.96 133.11 Z" />
<path fill="#f9f9f9" opacity="1.00" d=" M 90.01 158.97 C 91.79 159.08 94.53 158.32 94.13 161.10 C 93.19 161.22 91.31 161.47 90.37 161.59 C 90.28 160.93 90.10 159.63 90.01 158.97 Z" />
</g>
<g id="#efc64dff">
<path fill="#efc64d" opacity="1.00" d=" M 57.81 74.86 C 59.26 73.17 60.78 71.54 62.40 70.01 C 60.16 75.04 57.14 80.51 58.79 86.18 C 60.74 92.29 67.28 94.92 72.89 96.64 C 70.94 106.40 69.48 116.54 70.87 126.48 C 64.94 125.73 58.98 123.62 54.56 119.46 C 49.22 114.56 46.81 107.05 47.31 99.92 C 47.83 90.64 52.31 82.15 57.81 74.86 Z" />
</g>
<g id="#f7c737ff">
<path fill="#f7c737" opacity="1.00" d=" M 72.89 96.64 C 88.27 100.81 104.44 100.56 119.90 104.33 C 123.19 105.08 126.30 106.42 129.35 107.84 C 117.56 115.18 104.92 121.36 91.44 124.86 C 91.46 122.39 91.47 119.91 91.50 117.44 C 86.56 118.85 81.63 120.27 76.70 121.71 C 76.69 123.43 76.68 125.14 76.67 126.86 C 74.73 126.74 72.80 126.64 70.87 126.48 C 69.48 116.54 70.94 106.40 72.89 96.64 Z" />
</g>
<g id="#244a80ff">
<path fill="#244a80" opacity="1.00" d=" M 142.72 113.57 C 144.80 113.00 146.89 112.43 148.98 111.85 C 149.04 113.38 149.09 114.90 149.12 116.42 C 148.96 118.16 149.14 119.99 148.50 121.64 C 147.43 123.41 145.47 124.28 143.61 124.97 C 143.03 121.20 142.77 117.38 142.72 113.57 Z" />
</g>
<g id="#1f5594ff">
<path fill="#1f5594" opacity="1.00" d=" M 134.67 115.81 C 137.33 114.99 140.03 114.32 142.72 113.57 C 142.77 117.38 143.03 121.20 143.61 124.97 C 140.97 125.69 138.29 126.28 135.64 126.98 C 135.06 123.28 134.72 119.55 134.67 115.81 Z" />
<path fill="#1f5594" opacity="1.00" d=" M 133.96 133.11 C 137.12 132.27 140.29 131.44 143.46 130.63 C 143.50 131.99 143.56 133.36 143.63 134.72 C 140.41 135.55 137.19 136.36 133.96 137.16 C 133.96 135.81 133.96 134.46 133.96 133.11 Z" />
</g>
<g id="#185ea5ff">
<path fill="#185ea5" opacity="1.00" d=" M 133.94 116.09 L 134.67 115.81 C 134.72 119.55 135.06 123.28 135.64 126.98 C 133.86 127.43 132.09 127.89 130.32 128.35 C 130.15 132.59 130.33 136.84 130.03 141.08 C 129.89 143.73 127.21 145.17 125.02 146.00 C 120.14 147.68 115.09 148.82 110.15 150.31 C 109.82 146.26 109.87 142.18 110.69 138.19 C 110.90 140.33 110.74 142.56 111.50 144.61 C 112.81 145.54 114.68 144.49 114.67 142.92 C 114.99 135.60 114.72 128.25 114.89 120.92 C 119.82 119.53 124.76 118.17 129.69 116.78 C 129.81 118.77 129.44 120.90 130.29 122.77 C 131.46 123.53 132.52 123.42 133.45 122.45 C 133.97 120.38 133.78 118.20 133.94 116.09 Z" />
<path fill="#185ea5" opacity="1.00" d=" M 120.03 159.09 C 121.15 157.50 123.31 158.12 124.96 157.95 C 126.50 159.96 127.38 163.21 125.23 165.14 C 123.24 166.82 120.80 165.39 119.13 164.03 C 119.38 162.40 119.03 160.52 120.03 159.09 M 122.38 159.33 C 119.94 160.01 120.40 164.52 123.05 164.63 C 125.81 164.06 125.44 158.63 122.38 159.33 Z" />
</g>
<g id="#224c84ff">
<path fill="#224c84" opacity="1.00" d=" M 76.70 121.71 C 81.63 120.27 86.56 118.85 91.50 117.44 C 91.47 119.91 91.46 122.39 91.44 124.86 C 91.44 127.65 91.18 130.49 91.72 133.25 C 92.76 133.83 93.88 134.01 95.09 133.79 C 94.99 135.20 94.90 136.60 94.82 138.02 C 87.77 139.92 80.73 141.88 73.68 143.79 C 73.21 143.92 72.28 144.17 71.81 144.30 C 72.13 142.54 72.46 140.77 72.60 138.99 C 73.97 139.35 76.20 139.49 76.42 137.59 C 76.90 134.03 76.57 130.43 76.67 126.86 C 76.68 125.14 76.69 123.43 76.70 121.71 Z" />
<path fill="#224c84" opacity="1.00" d=" M 81.34 158.64 C 82.58 157.53 83.90 156.52 85.31 155.65 C 85.07 156.17 84.59 157.21 84.36 157.74 C 85.17 158.03 86.80 158.61 87.61 158.91 C 85.89 158.93 84.17 158.96 82.45 158.98 C 82.45 159.53 82.45 160.62 82.45 161.16 C 84.07 161.24 85.68 161.36 87.30 161.51 C 85.83 162.38 84.08 162.35 82.44 162.42 L 82.43 164.57 C 84.20 164.69 85.98 164.80 87.74 165.12 C 85.81 165.77 83.76 165.79 81.75 165.79 C 81.46 165.00 80.88 163.43 80.59 162.64 L 81.37 162.71 C 81.39 161.35 81.38 160.00 81.34 158.64 Z" />
<path fill="#224c84" opacity="1.00" d=" M 143.24 158.39 C 143.54 158.29 144.14 158.08 144.44 157.98 C 145.96 157.93 147.48 157.95 149.00 158.03 L 149.00 159.33 C 147.46 159.50 144.80 158.52 144.69 160.88 C 146.27 161.12 148.24 160.61 149.35 162.13 C 147.58 162.39 144.43 161.54 144.67 164.37 C 146.09 164.37 147.52 164.37 148.94 164.36 C 148.96 164.72 149.01 165.43 149.03 165.78 C 147.15 165.70 145.27 165.71 143.39 165.61 C 143.48 163.20 143.37 160.79 143.24 158.39 Z" />
</g>
<g id="#1e5697ff">
<path fill="#1e5697" opacity="1.00" d=" M 95.65 126.05 C 100.78 124.77 105.91 123.51 111.05 122.26 C 110.50 126.12 112.51 131.95 107.95 133.95 C 103.79 135.92 99.21 136.73 94.82 138.02 C 94.90 136.60 94.99 135.20 95.09 133.79 C 95.45 131.23 95.66 128.64 95.65 126.05 Z" />
<path fill="#1e5697" opacity="1.00" d=" M 95.55 142.65 C 100.54 140.98 105.67 139.79 110.69 138.19 C 109.87 142.18 109.82 146.26 110.15 150.31 C 105.43 151.33 100.17 154.49 95.53 151.59 C 95.62 148.61 95.61 145.63 95.55 142.65 Z" />
<path fill="#1e5697" opacity="1.00" d=" M 135.08 158.94 C 137.26 157.16 140.09 158.14 142.53 158.63 C 141.75 158.88 140.17 159.37 139.39 159.62 C 138.89 161.64 140.78 165.35 138.06 166.12 C 137.96 163.96 137.96 161.80 137.88 159.64 C 137.18 159.46 135.78 159.12 135.08 158.94 Z" />
</g>
<g id="#3b5682ff">
<path fill="#3b5682" opacity="1.00" d=" M 57.77 136.62 C 62.59 135.39 67.43 134.26 72.25 133.00 C 72.40 134.99 72.55 136.99 72.60 138.99 C 72.46 140.77 72.13 142.54 71.81 144.30 C 67.83 145.40 63.85 146.62 59.71 146.97 C 59.23 146.76 58.28 146.33 57.80 146.12 C 57.73 144.91 57.69 143.69 57.69 142.48 C 57.68 140.53 57.71 138.57 57.77 136.62 Z" />
<path fill="#3b5682" opacity="1.00" d=" M 60.40 157.42 C 61.81 159.17 62.86 161.17 63.40 163.35 C 63.60 164.09 64.00 165.57 64.19 166.31 C 63.33 165.29 62.27 164.43 61.58 163.28 C 61.55 161.80 61.15 160.38 60.63 159.02 C 59.72 161.36 60.00 164.81 57.33 166.01 C 57.92 163.87 58.70 161.79 59.49 159.72 C 59.72 159.15 60.17 158.00 60.40 157.42 Z" />
</g>
<g id="#214f89ff">
<path fill="#214f89" opacity="1.00" d=" M 84.21 145.70 C 87.36 144.60 90.65 143.98 93.86 143.12 C 93.89 144.15 93.93 146.20 93.95 147.23 C 91.32 147.78 88.75 148.60 86.22 149.51 L 85.77 149.43 C 84.41 148.65 83.89 147.41 84.21 145.70 Z" />
<path fill="#214f89" opacity="1.00" d=" M 89.18 157.99 C 90.97 158.08 92.81 157.96 94.57 158.41 C 95.90 159.91 94.53 161.41 93.67 162.71 C 94.39 163.68 95.10 164.67 95.99 165.51 C 95.62 165.50 94.89 165.49 94.53 165.48 C 93.66 164.59 92.98 163.54 92.32 162.50 C 91.81 162.42 90.80 162.28 90.29 162.21 C 90.23 163.41 90.16 164.61 90.10 165.81 C 89.88 165.71 89.44 165.52 89.22 165.42 C 89.12 162.94 89.14 160.46 89.18 157.99 M 90.01 158.97 C 90.10 159.63 90.28 160.93 90.37 161.59 C 91.31 161.47 93.19 161.22 94.13 161.10 C 94.53 158.32 91.79 159.08 90.01 158.97 Z" />
</g>
<g id="#234a80ff">
<path fill="#234a80" opacity="1.00" d=" M 77.25 147.41 C 79.18 146.87 81.13 146.39 83.08 145.92 C 83.15 147.31 83.25 148.70 83.36 150.09 C 80.11 150.88 76.81 151.50 73.60 152.50 C 73.55 151.50 73.43 149.52 73.38 148.53 C 74.67 148.16 75.94 147.73 77.25 147.41 Z" />
</g>
<g id="#546d94ff">
<path fill="#546d94" opacity="1.00" d=" M 65.84 164.84 C 65.97 162.43 64.86 159.35 66.90 157.49 C 67.02 159.83 67.04 162.17 67.04 164.52 C 67.74 164.61 69.15 164.81 69.85 164.90 L 70.72 165.75 C 69.12 165.81 67.53 165.90 65.93 166.04 L 65.84 164.84 Z" />
</g>
<g id="#4a77abff">
<path fill="#4a77ab" opacity="1.00" d=" M 101.00 157.94 C 103.19 157.90 105.42 157.92 107.51 158.66 C 105.62 159.31 102.37 158.10 101.82 160.75 C 103.35 160.91 104.89 161.06 106.44 161.18 L 106.42 162.30 C 105.05 162.32 103.68 162.35 102.31 162.38 C 102.32 162.93 102.33 164.02 102.34 164.56 C 104.09 164.51 105.86 164.61 107.32 165.72 C 105.20 165.86 103.07 165.92 100.95 165.71 C 100.98 163.12 100.99 160.53 101.00 157.94 Z" />
</g>
<g id="#f2f3f3ff">
<path fill="#f2f3f3" opacity="1.00" d=" M 73.32 162.02 C 72.82 159.28 75.54 158.64 77.63 159.04 C 77.89 159.73 78.42 161.10 78.68 161.78 C 77.89 161.99 76.32 162.42 75.53 162.63 C 76.23 162.72 77.64 162.90 78.34 162.99 C 77.72 166.01 72.88 165.06 73.32 162.02 Z" />
<path fill="#f2f3f3" opacity="1.00" d=" M 113.31 159.18 C 114.60 159.30 115.93 159.50 116.27 161.01 C 115.30 161.23 114.33 161.44 113.36 161.64 C 113.35 161.02 113.32 159.80 113.31 159.18 Z" />
<path fill="#f2f3f3" opacity="1.00" d=" M 122.38 159.33 C 125.44 158.63 125.81 164.06 123.05 164.63 C 120.40 164.52 119.94 160.01 122.38 159.33 Z" />
</g>
</svg>
